<svg width="414" height="896" viewBox="0 0 414 896" fill="none" xmlns="http://www.w3.org/2000/svg">
  <rect width="414" height="896" fill="#F0F0F0"/>
  
  <!-- Map grid -->
  <defs>
    <pattern id="grid" width="20" height="20" patternUnits="userSpaceOnUse">
      <path d="M 20 0 L 0 0 0 20" fill="none" stroke="#E0E0E0" stroke-width="0.5"/>
    </pattern>
  </defs>
  <rect width="414" height="896" fill="url(#grid)"/>
  
  <!-- Streets -->
  <path d="M0 200 L414 200" stroke="#CCCCCC" stroke-width="3"/>
  <path d="M0 400 L414 400" stroke="#CCCCCC" stroke-width="2"/>
  <path d="M0 600 L414 600" stroke="#CCCCCC" stroke-width="3"/>
  <path d="M100 0 L100 896" stroke="#CCCCCC" stroke-width="2"/>
  <path d="M200 0 L200 896" stroke="#CCCCCC" stroke-width="3"/>
  <path d="M314 0 L314 896" stroke="#CCCCCC" stroke-width="2"/>
  
  <!-- Buildings -->
  <rect x="50" y="150" width="80" height="100" fill="#E8E8E8" stroke="#D0D0D0"/>
  <rect x="180" y="120" width="60" height="130" fill="#E8E8E8" stroke="#D0D0D0"/>
  <rect x="280" y="160" width="90" height="80" fill="#E8E8E8" stroke="#D0D0D0"/>
  
  <rect x="30" y="350" width="100" height="80" fill="#E8E8E8" stroke="#D0D0D0"/>
  <rect x="160" y="320" width="70" height="120" fill="#E8E8E8" stroke="#D0D0D0"/>
  <rect x="260" y="340" width="80" height="100" fill="#E8E8E8" stroke="#D0D0D0"/>
  
  <rect x="70" y="550" width="90" height="90" fill="#E8E8E8" stroke="#D0D0D0"/>
  <rect x="190" y="520" width="80" height="130" fill="#E8E8E8" stroke="#D0D0D0"/>
  <rect x="300" y="560" width="70" height="80" fill="#E8E8E8" stroke="#D0D0D0"/>
  
  <!-- Medical markers -->
  <circle cx="120" cy="200" r="8" fill="#21A038"/>
  <text x="120" y="205" text-anchor="middle" fill="white" font-size="10" font-weight="bold">+</text>
  
  <circle cx="220" cy="380" r="8" fill="#21A038"/>
  <text x="220" y="385" text-anchor="middle" fill="white" font-size="10" font-weight="bold">+</text>
  
  <circle cx="320" cy="600" r="8" fill="#21A038"/>
  <text x="320" y="605" text-anchor="middle" fill="white" font-size="10" font-weight="bold">+</text>
  
  <!-- Parks -->
  <ellipse cx="80" cy="480" rx="40" ry="30" fill="#C8E6C9"/>
  <ellipse cx="300" cy="280" rx="35" ry="25" fill="#C8E6C9"/>
  
  <!-- Labels -->
  <text x="120" y="190" text-anchor="middle" fill="#666" font-size="8">Стоматология</text>
  <text x="220" y="370" text-anchor="middle" fill="#666" font-size="8">Диагностика</text>
  <text x="320" y="590" text-anchor="middle" fill="#666" font-size="8">Мед.центр</text>
</svg> 