<svg width="375" height="812" viewBox="0 0 375 812" fill="none" xmlns="http://www.w3.org/2000/svg">
  <!-- Map Background -->
  <rect width="375" height="812" fill="#F0F4F8"/>
  
  <!-- Map Grid Lines -->
  <defs>
    <pattern id="mapGrid" width="40" height="40" patternUnits="userSpaceOnUse">
      <path d="M 40 0 L 0 0 0 40" fill="none" stroke="#E2E8F0" stroke-width="1" opacity="0.3"/>
    </pattern>
  </defs>
  <rect width="375" height="812" fill="url(#mapGrid)"/>
  
  <!-- Map Roads -->
  <path d="M0 200 L375 180" stroke="#CBD5E0" stroke-width="3" opacity="0.6"/>
  <path d="M0 350 L375 330" stroke="#CBD5E0" stroke-width="4" opacity="0.6"/>
  <path d="M0 500 L375 520" stroke="#CBD5E0" stroke-width="3" opacity="0.6"/>
  <path d="M100 0 L120 812" stroke="#CBD5E0" stroke-width="3" opacity="0.6"/>
  <path d="M250 0 L270 812" stroke="#CBD5E0" stroke-width="4" opacity="0.6"/>
  
  <!-- Map Buildings -->
  <rect x="50" y="120" width="80" height="60" fill="#E2E8F0" opacity="0.7" rx="4"/>
  <rect x="180" y="250" width="100" height="80" fill="#E2E8F0" opacity="0.7" rx="4"/>
  <rect x="280" y="150" width="70" height="50" fill="#E2E8F0" opacity="0.7" rx="4"/>
  <rect x="30" y="400" width="90" height="70" fill="#E2E8F0" opacity="0.7" rx="4"/>
  <rect x="200" y="450" width="120" height="90" fill="#E2E8F0" opacity="0.7" rx="4"/>
  
  <!-- Clinic Location Pin -->
  <circle cx="187" cy="300" r="8" fill="#21A038"/>
  <circle cx="187" cy="300" r="12" fill="#21A038" opacity="0.3"/>
  <circle cx="187" cy="300" r="16" fill="#21A038" opacity="0.2"/>
</svg> 